<svg xmlns="http://www.w3.org/2000/svg" width="32" height="32" fill="none"><path fill="#fff" fill-rule="evenodd" d="M16.035 2.667c-7.346 0-13.299 5.953-13.299 13.298 0 5.875 3.81 10.86 9.095 12.62.665.12.905-.289.905-.641 0-.316-.01-1.153-.015-2.261-3.7.802-4.481-1.784-4.481-1.784-.603-1.536-1.476-1.946-1.476-1.946-1.207-.825.092-.806.092-.806 1.336.093 2.036 1.37 2.036 1.37 1.187 2.032 3.115 1.446 3.87 1.106.12-.86.467-1.447.846-1.779-2.952-.335-6.056-1.476-6.056-6.573 0-1.45.519-2.639 1.365-3.567-.134-.337-.594-1.69.132-3.52 0 0 1.116-.359 3.656 1.361a12.775 12.775 0 0 1 3.328-.448 12.74 12.74 0 0 1 3.328.448c2.542-1.721 3.656-1.361 3.656-1.361.727 1.83.271 3.183.132 3.52.854.928 1.366 2.116 1.366 3.567 0 5.11-3.107 6.233-6.07 6.562.474.411.9 1.222.9 2.462 0 1.778-.016 3.213-.016 3.649 0 .356.238.77.916.639 5.283-1.763 9.088-6.744 9.088-12.618 0-7.345-5.953-13.298-13.298-13.298Z" clip-rule="evenodd"/></svg>