<svg xmlns="http://www.w3.org/2000/svg" width="32" height="32" fill="none"><path fill="#fff" d="M26.667 4H5.333A1.333 1.333 0 0 0 4 5.333v21.334A1.333 1.333 0 0 0 5.333 28h21.334A1.334 1.334 0 0 0 28 26.667V5.333A1.334 1.334 0 0 0 26.667 4ZM11.119 24.45H7.556V12.995h3.563v11.453ZM9.337 11.431a2.064 2.064 0 1 1 0-4.129 2.064 2.064 0 0 1 0 4.129Zm15.114 13.017h-3.559V18.88c0-1.328-.024-3.036-1.85-3.036-1.854 0-2.135 1.448-2.135 2.943v5.664H13.35V12.997h3.413v1.566h.05c.473-.9 1.635-1.85 3.365-1.85 3.605 0 4.27 2.371 4.27 5.456l.002 6.28Z"/></svg>